<svg width="177" height="35" viewBox="0 0 177 35" fill="none" xmlns="http://www.w3.org/2000/svg">
<path d="M23.9129 26.8604C25.3479 26.8604 26.4924 28.0242 26.4924 29.44C26.4924 30.8558 25.3483 32 23.9129 32C22.4971 32 21.3529 30.8558 21.3529 29.44C21.3529 28.0242 22.4971 26.8604 23.9129 26.8604Z" fill="#335EEA"/>
<path d="M14.2158 26.8604C15.6509 26.8604 16.7954 28.0242 16.7954 29.44C16.7954 30.8558 15.6512 32 14.2158 32C12.8 32 11.6558 30.8558 11.6558 29.44C11.6558 28.0242 12.8 26.8604 14.2158 26.8604Z" fill="#335EEA"/>
<path d="M23.4667 11.5588C24.0679 12.1017 24.0871 13.0133 23.5442 13.6146L19.0062 18.4629C18.7154 18.7538 18.3467 18.9092 17.9396 18.9092C17.5324 18.9092 17.1445 18.7541 16.8729 18.4629L14.6037 16.0388C14.0608 15.4375 14.08 14.5259 14.6812 13.9829C15.2629 13.4204 16.1746 13.4592 16.7371 14.0412L17.9396 15.3408L21.4112 11.6171C21.9733 11.035 22.885 10.9963 23.4667 11.5588Z" fill="#42BA96"/>
<path d="M11.2096 20.1696C11.365 20.8292 11.9467 21.3333 12.645 21.3333H26.0267C26.725 21.3333 27.3454 20.8292 27.4617 20.1308L29.0713 10.4338L29.0908 10.1817C29.0908 9.40587 28.4508 8.72711 27.6363 8.72711H9.30916L11.0741 19.2967L11.21 20.1113V20.1308C11.2096 20.1504 11.2096 20.1504 11.2096 20.1696ZM12.645 24.2425C10.6087 24.2425 8.86329 22.8654 8.41707 20.9067C8.37831 20.8096 8.35876 20.7129 8.33956 20.6158V20.5963L5.52747 4.13084C5.4112 3.43253 4.7904 2.90916 4.09244 2.90916H1.45458C0.659555 2.90916 0 2.26916 0 1.45458C0 0.659555 0.659555 0 1.45458 0H4.09209C6.22542 0 8.02916 1.53209 8.39751 3.62667L8.76587 5.81831H27.6363C30.08 5.83751 32 7.81582 32 10.1817C32 10.4146 31.9804 10.6667 31.9417 10.8992L30.3321 20.5963C29.9829 22.7104 28.16 24.2425 26.0267 24.2425H12.645Z" fill="#335EEA"/>
<path d="M50.7246 27.2539C54.292 27.2539 57.1484 25.4385 58.5703 22.0869L55.5869 20.8682C54.6221 23.2803 53.0352 24.1943 50.7246 24.1943C46.8779 24.1943 45.2402 21.4648 45.2402 17.8975C45.2402 14.5713 46.8779 11.8418 50.6738 11.8418C53.0098 11.8418 54.8633 12.7559 55.5361 15.1172L58.5449 13.9238C57.0977 10.5723 54.2539 8.76953 50.6992 8.76953C44.7959 8.76953 42.041 13.1113 42.041 18.0244C42.041 22.9502 44.8213 27.2539 50.7246 27.2539ZM59.752 27H62.9004V20.5762C62.9004 18.4688 63.8399 16.8564 65.8204 16.8564C67.6866 16.8564 68.1055 18.2148 68.1055 19.7764V27H71.2539V19.3828C71.2539 16.7295 69.8955 14.0508 66.5694 14.0508C65.3252 14.0508 63.9161 14.5459 62.9004 15.79V9.06152H59.752V27ZM78.8468 27.2539C80.9796 27.2539 82.668 26.5049 84.0518 24.9688L81.919 23.1025C81.0304 24.0928 80.0147 24.4482 78.8721 24.4482C76.879 24.4482 75.9649 23.3311 75.6983 21.668H84.4073C84.4708 21.4902 84.5216 20.9697 84.5216 20.4492C84.5216 17.6182 83.087 14.0508 78.6436 14.0508C74.3526 14.0508 72.4229 17.4023 72.4229 20.7031C72.4229 24.1182 74.4796 27.2539 78.8468 27.2539ZM75.6983 19.4336C75.9903 17.8467 76.7901 16.6533 78.6182 16.6533C79.9639 16.6533 81.0557 17.3262 81.3731 18.6338C81.4493 18.8877 81.4747 19.1543 81.4747 19.4336H75.6983ZM91.1114 27.2539C93.6251 27.2539 95.6056 25.8574 96.4435 23.4961L93.6251 22.4297C93.295 23.623 92.3302 24.4482 91.0861 24.4482C88.9279 24.4482 88.1154 22.6074 88.1154 20.6777C88.1154 18.7861 88.9532 16.8564 91.0861 16.8564C92.3556 16.8564 93.295 17.7197 93.6251 18.9385L96.5704 17.7959C95.6056 15.2695 93.5997 14.0508 91.0861 14.0508C86.9474 14.0508 84.9669 17.3516 84.9669 20.6777C84.9669 24.042 86.9728 27.2539 91.1114 27.2539ZM97.8156 27H100.913V23.2803L102.868 21.1221L106.588 27H110.244L104.976 19.2305L109.724 14.3174H105.699L100.913 19.5859V9.06152H97.8156V27ZM115.666 27.2539C117.799 27.2539 119.488 26.5049 120.871 24.9688L118.738 23.1025C117.85 24.0928 116.834 24.4482 115.692 24.4482C113.698 24.4482 112.784 23.3311 112.518 21.668H121.227C121.29 21.4902 121.341 20.9697 121.341 20.4492C121.341 17.6182 119.906 14.0508 115.463 14.0508C111.172 14.0508 109.242 17.4023 109.242 20.7031C109.242 24.1182 111.299 27.2539 115.666 27.2539ZM112.518 19.4336C112.81 17.8467 113.61 16.6533 115.438 16.6533C116.783 16.6533 117.875 17.3262 118.193 18.6338C118.269 18.8877 118.294 19.1543 118.294 19.4336H112.518ZM127.36 27.2539C128.756 27.2539 130.165 26.7715 131.041 25.5654L131.181 27H134.063V9.06152H130.914V15.5869C130.038 14.4951 128.629 14.0508 127.309 14.0508C123.792 14.0508 121.863 17.1484 121.863 20.6523C121.863 24.1943 123.792 27.2539 127.36 27.2539ZM128.109 24.4482C125.976 24.4482 125.011 22.7852 125.011 20.6523C125.011 18.5449 125.976 16.8564 128.109 16.8564C130.241 16.8564 131.181 18.5195 131.181 20.6523C131.181 22.8105 130.241 24.4482 128.109 24.4482ZM144.601 27.2539C150.53 27.2539 153.259 22.9121 153.259 18.0244C153.259 13.1367 150.53 8.79492 144.601 8.79492C138.672 8.79492 135.943 13.1367 135.943 18.0244C135.943 22.9121 138.672 27.2539 144.601 27.2539ZM144.601 24.3975C140.754 24.3975 139.345 21.4141 139.345 18.0244C139.345 14.6475 140.754 11.6641 144.601 11.6641C148.448 11.6641 149.857 14.6475 149.857 18.0244C149.857 21.4141 148.448 24.3975 144.601 24.3975ZM159.341 27.2539C160.598 27.2539 162.071 26.7715 163.086 25.5146V27H166.159V14.3174H163.086V21.249C163.086 23.458 161.969 24.3975 160.23 24.3975C158.643 24.3975 157.805 23.2041 157.805 21.541V14.3174H154.745V21.9346C154.745 24.5879 156.015 27.2539 159.341 27.2539ZM173.294 27.2539C174.221 27.2539 175.135 27.0508 175.605 26.873V24.0674C175.186 24.2705 174.488 24.5244 173.84 24.5244C173.028 24.5244 172.431 24.1689 172.431 22.9502V16.9072H175.605V14.3174H172.431V8.95996L169.384 11.1689V14.3174H167.289V16.9072H169.333V23.4961C169.333 25.8066 170.819 27.2539 173.294 27.2539Z" fill="#161C2D"/>
</svg>
